<?xml version="1.0" encoding="UTF-8"?>
<svg width="402px" height="130px" viewBox="0 0 402 130" version="1.1" xmlns="http://www.w3.org/2000/svg" xmlns:xlink="http://www.w3.org/1999/xlink">
    <!-- Generator: Sketch 57.1 (83088) - https://sketch.com -->
    <title>HET_logo_2015</title>
    <desc>Created with Sketch.</desc>
    <g id="Styleguide" stroke="none" stroke-width="1" fill="none" fill-rule="evenodd">
        <g id="Stylesheet-v02" transform="translate(-64.000000, -261.000000)" fill="#000000">
            <g id="Group-30" transform="translate(0.000000, 50.000000)">
                <g id="HET_logo_2015" transform="translate(64.000000, 211.000000)">
                    <path d="M50.53,54.379 C47.933,54.379 45.777,55.751 45.238,58.348 L55.577,58.348 C55.136,55.947 52.931,54.379 50.53,54.379" id="Fill-1"></path>
                    <path d="M63.858,63.493 L45.091,63.493 C45.091,67.119 47.002,69.079 50.677,69.079 C52.588,69.079 53.96,68.442 54.94,66.776 L63.515,66.776 C62.829,69.716 61.065,71.872 58.762,73.293 C56.459,74.714 53.617,75.4 50.726,75.4 C42.396,75.4 36.173,70.696 36.173,62.023 C36.173,53.644 41.906,48.597 50.089,48.597 C58.811,48.597 63.858,53.987 63.858,62.563 L63.858,63.493 Z M82.789,56.78 L78.602,56.78 L78.602,74.567 L69.684,74.567 L69.684,56.78 L65.376,56.78 L65.376,49.43 L69.684,49.43 L69.684,41.884 L78.602,41.884 L78.602,49.43 L82.789,49.43 L82.789,0.52 L0,0.52 L0,37.621 L9.468,37.621 L9.468,51.88 L23.335,51.88 L23.335,37.621 L32.939,37.621 L32.939,74.567 L23.335,74.567 L23.335,59.426 L9.468,59.426 L9.468,74.567 L0,74.567 L0,83.31 L82.789,83.31 L82.789,56.78 L82.789,56.78 Z" id="Fill-2"></path>
                    <path d="M109.515,117.456 C109.515,120.641 108.731,122.895 105.056,122.895 C101.381,122.895 100.597,120.641 100.597,117.456 L100.597,104.03 L91.679,104.03 L91.679,119.171 C91.679,127.452 97.51,130 105.056,130 C112.602,130 118.433,127.452 118.433,119.171 L118.433,104.03 L109.515,104.03 L109.515,117.456" id="Fill-3"></path>
                    <path d="M139.846,117.456 C139.846,120.641 139.062,122.895 135.387,122.895 C131.712,122.895 130.928,120.641 130.928,117.456 L130.928,104.03 L122.01,104.03 L122.01,119.171 C122.01,127.452 127.841,130 135.387,130 C142.933,130 148.764,127.452 148.764,119.171 L148.764,104.03 L139.846,104.03 L139.846,117.456" id="Fill-4"></path>
                    <path d="M161.993,108.146 L161.895,108.146 L161.895,104.03 L152.977,104.03 L152.977,129.167 L161.895,129.167 L161.895,119.024 C161.895,114.712 163.12,111.429 168.069,111.429 C169.441,111.429 170.617,111.576 171.842,112.262 L171.842,103.687 L170.127,103.687 C166.648,103.687 163.708,105.059 161.993,108.146" id="Fill-5"></path>
                    <polyline id="Fill-6" points="27.294 114.81 27.196 114.81 9.605 92.221 0.001 92.221 0.001 129.167 9.605 129.167 9.605 106.529 9.703 106.529 27.294 129.167 36.898 129.167 36.898 92.221 27.294 92.221 27.294 114.81"></polyline>
                    <polyline id="Fill-7" points="82.985 96.508 74.689 96.508 74.689 104.054 71.798 104.054 71.798 111.404 74.689 111.404 74.689 129.191 82.985 129.191 82.985 111.404 88.654 111.404 88.654 104.054 82.985 104.054 82.985 96.508"></polyline>
                    <path d="M191.736,103.197 C188.257,103.197 185.758,104.471 183.7,107.215 L183.602,107.215 L183.602,88.497 L174.684,88.497 L174.684,129.167 L183.602,129.167 L183.602,116.28 C183.602,113.34 184.729,110.302 188.257,110.302 C191.834,110.302 192.275,113.34 192.275,116.28 L192.275,129.167 L201.193,129.167 L201.193,113.781 C201.193,107.411 198.106,103.197 191.736,103.197" id="Fill-8"></path>
                    <path d="M54.636,122.258 C51.01,122.258 48.903,119.808 48.903,116.623 C48.903,113.536 51.01,110.939 54.636,110.939 C58.262,110.939 60.369,113.536 60.369,116.623 C60.369,119.808 58.262,122.258 54.636,122.258 Z M60.075,106.48 C58.213,104.275 55.175,103.197 52.284,103.197 C44.836,103.197 39.691,109.371 39.691,116.574 C39.691,123.777 44.934,130 52.382,130 C55.322,130 58.409,128.873 59.977,126.374 L60.075,126.374 L60.075,129.167 L68.993,129.167 L68.993,104.03 L60.075,104.03 L60.075,106.48 L60.075,106.48 Z" id="Fill-9"></path>
                    <path d="M302.179,108.146 L302.081,108.146 L302.081,104.03 L293.163,104.03 L293.163,129.167 L302.081,129.167 L302.081,119.024 C302.081,114.712 303.306,111.429 308.255,111.429 C309.627,111.429 310.803,111.576 312.028,112.262 L312.028,103.687 L310.313,103.687 C306.834,103.687 303.894,105.059 302.179,108.146" id="Fill-10"></path>
                    <polygon id="Fill-11" points="314.869 129.167 323.787 129.167 323.787 104.03 314.869 104.03"></polygon>
                    <path d="M341.721,113.193 C340.496,112.948 337.703,112.703 337.703,110.988 C337.703,109.714 339.467,109.273 340.496,109.273 C342.015,109.273 343.926,109.763 345.298,110.498 L348.287,104.814 C345.69,103.638 342.848,103.197 340.006,103.197 C334.518,103.197 328.932,105.941 328.932,112.115 C328.932,116.623 331.725,117.995 334.518,118.73 C337.311,119.465 340.104,119.563 340.104,121.523 C340.104,122.895 338.438,123.434 337.311,123.434 C335.106,123.434 332.068,122.16 330.255,120.886 L327.021,127.109 C330.059,128.971 333.587,130 337.165,130 C342.995,130 349.022,127.256 349.022,120.641 C349.022,115.986 345.886,114.026 341.721,113.193" id="Fill-12"></path>
                    <path d="M319.328,89.379 C316.584,89.379 314.331,91.633 314.331,94.377 C314.331,97.121 316.584,99.375 319.328,99.375 C322.072,99.375 324.326,97.121 324.326,94.377 C324.326,91.633 322.072,89.379 319.328,89.379" id="Fill-13"></path>
                    <path d="M391.601,103.197 C388.122,103.197 385.624,104.471 383.565,107.215 L383.467,107.215 L383.467,88.497 L374.549,88.497 L374.549,129.167 L383.467,129.167 L383.467,116.28 C383.467,113.34 384.594,110.302 388.122,110.302 C391.699,110.302 392.14,113.34 392.14,116.28 L392.14,129.167 L401.058,129.167 L401.058,113.781 C401.058,107.411 397.971,103.197 391.601,103.197" id="Fill-14"></path>
                    <path d="M351.03,116.868 C351.03,124.463 357.253,130 364.701,130 C366.857,130 369.013,129.559 370.973,128.579 L370.973,121.033 C369.797,122.111 368.083,122.748 366.514,122.748 C362.839,122.748 360.242,120.2 360.242,116.574 C360.242,113.095 362.937,110.449 366.367,110.449 C368.083,110.449 369.65,111.233 370.973,112.213 L370.973,104.667 C369.209,103.687 367.151,103.197 365.093,103.197 C357.204,103.197 351.03,108.783 351.03,116.868" id="Fill-15"></path>
                    <path d="M274.984,122.258 C271.358,122.258 269.251,119.808 269.251,116.623 C269.251,113.536 271.358,110.939 274.984,110.939 C278.61,110.939 280.717,113.536 280.717,116.623 C280.717,119.808 278.61,122.258 274.984,122.258 Z M274.984,103.197 C266.899,103.197 259.843,108.048 259.843,116.623 C259.843,125.198 266.948,130 274.984,130 C283.069,130 290.125,125.149 290.125,116.623 C290.125,108.048 283.069,103.197 274.984,103.197 L274.984,103.197 Z" id="Fill-16"></path>
                    <path d="M232.454,113.193 C231.229,112.948 228.436,112.703 228.436,110.988 C228.436,109.714 230.2,109.273 231.229,109.273 C232.749,109.273 234.659,109.763 236.031,110.498 L239.02,104.814 C236.423,103.638 233.582,103.197 230.739,103.197 C225.251,103.197 219.666,105.941 219.666,112.115 C219.666,116.623 222.458,117.995 225.251,118.73 C228.044,119.465 230.837,119.563 230.837,121.523 C230.837,122.895 229.171,123.434 228.044,123.434 C225.839,123.434 222.801,122.16 220.988,120.886 L217.754,127.109 C220.792,128.971 224.32,130 227.897,130 C233.728,130 239.755,127.256 239.755,120.641 C239.755,115.986 236.619,114.026 232.454,113.193" id="Fill-17"></path>
                    <path d="M210.062,89.379 C207.318,89.379 205.064,91.633 205.064,94.377 C205.064,97.121 207.318,99.375 210.062,99.375 C212.806,99.375 215.06,97.121 215.06,94.377 C215.06,91.633 212.806,89.379 210.062,89.379" id="Fill-18"></path>
                    <polyline id="Fill-19" points="253.817 96.484 244.899 96.484 244.899 104.03 242.008 104.03 242.008 111.38 244.899 111.38 244.899 129.167 253.817 129.167 253.817 111.38 258.864 111.38 258.864 104.03 253.817 104.03 253.817 96.484"></polyline>
                    <polygon id="Fill-20" points="205.603 129.167 214.521 129.167 214.521 104.03 205.603 104.03"></polygon>
                </g>
            </g>
        </g>
    </g>
</svg>
